<svg xmlns="http://www.w3.org/2000/svg" width="17" height="17" viewBox="0 0 17 17">
    <path fill="#4A4A4A" fill-rule="evenodd" d="M11.048 8.286a2.767 2.767 0 0 0-2.762-2.762 2.767 2.767 0 0 0-2.762 2.762 2.767 2.767 0 0 0 2.762 2.762 2.767 2.767 0 0 0 2.762-2.762zM16.57 7.11v2.395c0 .162-.129.356-.302.388l-1.996.302a6.113 6.113 0 0 1-.42.982c.367.529.755 1.003 1.154 1.489a.426.426 0 0 1 .108.27.36.36 0 0 1-.097.248c-.26.345-1.716 1.931-2.082 1.931a.549.549 0 0 1-.28-.097l-1.49-1.165a6.506 6.506 0 0 1-.981.41c-.076.658-.14 1.359-.313 2.006a.395.395 0 0 1-.389.302H7.088c-.194 0-.367-.14-.388-.323l-.302-1.985a6.335 6.335 0 0 1-.971-.4l-1.521 1.155a.414.414 0 0 1-.27.097.386.386 0 0 1-.27-.119c-.572-.518-1.327-1.186-1.78-1.812a.42.42 0 0 1 .01-.496c.368-.497.767-.971 1.134-1.479a5.724 5.724 0 0 1-.443-1.068l-1.974-.29A.394.394 0 0 1 0 9.46V7.068c0-.162.13-.356.291-.389l2.007-.302c.108-.345.248-.669.42-.992a26.062 26.062 0 0 0-1.154-1.49.398.398 0 0 1-.108-.258c0-.097.044-.173.098-.248.259-.356 1.715-1.932 2.082-1.932a.48.48 0 0 1 .28.108l1.49 1.155c.312-.162.646-.302.98-.41.076-.658.141-1.36.314-2.007A.395.395 0 0 1 7.088 0h2.395c.194 0 .367.14.389.324l.302 1.985c.334.108.658.237.97.399l1.533-1.154a.368.368 0 0 1 .259-.098c.097 0 .194.044.27.108.571.529 1.326 1.198 1.78 1.834a.407.407 0 0 1-.01.485c-.368.497-.767.972-1.134 1.479.183.345.334.701.442 1.057l1.975.302a.394.394 0 0 1 .312.389z"/>
</svg>
