<svg xmlns="http://www.w3.org/2000/svg" width="12" height="12" viewBox="0 0 12 12">
    <path fill="#54A5E0" fill-rule="evenodd" d="M2.853 10.902l.716-.715L1.72 8.34l-.715.715v.841h1.006v1.006h.841zm4.111-7.294a.165.165 0 0 0-.173-.173.184.184 0 0 0-.133.055l-4.26 4.26a.184.184 0 0 0-.056.134c0 .102.071.173.173.173a.184.184 0 0 0 .134-.055l4.26-4.26a.184.184 0 0 0 .055-.134zm-.424-1.51l3.27 3.27-6.54 6.54H0v-3.27l6.54-6.54zm5.369.755c0 .268-.11.527-.291.708l-1.305 1.305-3.27-3.27L8.348.299A.986.986 0 0 1 9.055 0c.267 0 .527.11.715.299l1.848 1.839c.18.189.29.448.29.715z"/>
</svg>
