<svg xmlns="http://www.w3.org/2000/svg" width="22" height="18" viewBox="0 0 22 18">
    <path fill="#4990E2" fill-rule="evenodd" d="M7.143 5a2.143 2.143 0 1 1-4.287-.001A2.143 2.143 0 0 1 7.143 5zM18.57 9.286v5H2.857v-2.143L6.43 8.57l1.785 1.786 5.715-5.714 4.642 4.643zm1.072-7.857H1.786a.367.367 0 0 0-.357.357v13.571c0 .19.167.357.357.357h17.857c.19 0 .357-.167.357-.357V1.786a.367.367 0 0 0-.357-.357zm1.786.357v13.571c0 .982-.804 1.786-1.786 1.786H1.786A1.791 1.791 0 0 1 0 15.357V1.786C0 .804.804 0 1.786 0h17.857c.982 0 1.786.804 1.786 1.786z"/>
</svg>
